#!OML:ASF H:\Terrain\Patient Classification 1\Walking\liu\liu.ASF
:FULLY-SPECIFIED
:DEGREES
149
root 8.54908 16.0545 -15.8734 6.49765 9.12045 2.35045
lowerback -6.40317 -3.29498 -2.93734
upperback -1.24793 -4.25925 2.53783
thorax 2.70287 -2.15883 3.89203
lowerneck -19.9699 -6.04881 -13.7316
upperneck 17.1375 -7.13118 13.0626
head 9.71191 -2.84396 5.84614
rclavicle 3.77194e-014 -1.03368e-014
rhumerus -47.7449 3.63063 -80.8154
rradius 28.5956
rwrist -12.5696
rhand -26.4472 -21.9269
rfingers 7.12502
rthumb 0.11387 -51.9066
lclavicle 3.77194e-014 -1.03368e-014
lhumerus -36.6409 2.15975 88.9363
lradius 17.3695
lwrist -11.6305
lhand -7.83962 -20.8403
lfingers 7.12502
lthumb 18.0631 8.34089
rfemur -39.4434 1.64017 17.7263
rtibia 39.5057
rfoot -7.63855 -2.70495
rtoes -15.5156
lfemur 21.7316 6.16256 -15.9728
ltibia 12.274
lfoot 7.86322 -0.406308
ltoes -14.5499
150
root 8.51735 16.101 -15.7264 6.72405 9.25623 1.98173
lowerback -6.41817 -3.34518 -2.65153
upperback -1.30854 -4.34732 2.64063
thorax 2.64355 -2.19883 3.83084
lowerneck -20.1256 -6.01575 -13.6601
upperneck 17.0312 -7.10666 13.1963
head 9.70281 -2.80835 5.88369
rclavicle 3.2054e-015 -3.89618e-014
rhumerus -47.3493 3.79615 -80.8898
rradius 28.4633
rwrist -12.8186
rhand -26.4403 -17.6587
rfingers 7.12502
rthumb 0.120445 -47.6384
lclavicle 3.2054e-015 -3.89618e-014
lhumerus -37.1154 3.35617 88.086
lradius 17.1024
lwrist -12.7586
lhand -4.48185 -18.9168
lfingers 7.12502
lthumb 21.2912 9.93368
rfemur -38.9226 1.5152 18.3799
rtibia 39.1971
rfoot -8.2027 -2.44505
rtoes -14.7068
lfemur 18.9204 6.55274 -15.341
ltibia 17.4958
lfoot 7.60398 -0.164377
ltoes -13.4523
151
root 8.48658 16.1437 -15.5848 6.8547 9.412 1.53366
lowerback -6.1868 -3.35719 -2.3036
upperback -1.42108 -4.39145 2.7681
thorax 2.38629 -2.21351 3.78076
lowerneck -20.1124 -6.01062 -13.5385
upperneck 17.0845 -7.1412 13.1849
head 9.7191 -2.81776 5.85501
rclavicle 2.72335e-014 2.38542e-015
rhumerus -47.0759 3.93182 -80.9366
rradius 28.4715
rwrist -13.0243
rhand -28.019 -22.7991
rfingers 7.12502
rthumb -1.40429 -52.7742
lclavicle 2.72335e-014 2.38542e-015
lhumerus -37.4658 3.80233 87.6165
lradius 16.6855
lwrist -13.2871
lhand -3.02465 -18.5477
lfingers 7.12502
lthumb 22.6903 10.1383
rfemur -38.2796 1.36876 19.1399
rtibia 38.7801
rfoot -8.75045 -2.16453
rtoes -14.4194
lfemur 16.583 6.86119 -14.6629
ltibia 21.8859
lfoot 7.54703 0.410312
ltoes -11.1576
152
root 8.45714 16.1788 -15.4454 6.93849 9.54576 1.13528
lowerback -5.96739 -3.25568 -1.95789
upperback -1.48677 -4.28193 2.90205
thorax 2.1721 -2.15345 3.75051
lowerneck -20.2054 -6.1821 -13.6625
upperneck 16.9874 -7.34197 13.2705
head 9.74185 -2.90681 5.87226
rclavicle 2.08475e-014 -7.95139e-015
rhumerus -47.2526 5.04954 -81.9725
rradius 28.8707
rwrist -16.5881
rhand -31.5497 -20.619
rfingers 7.12502
rthumb -4.81396 -50.5443
lclavicle 2.08475e-014 -7.95139e-015
lhumerus -37.7769 3.1955 87.8361
lradius 16.691
lwrist -12.856
lhand -2.94506 -19.0519
lfingers 7.12502
lthumb 22.7667 9.62471
rfemur -37.5583 1.46111 19.7491
rtibia 38.2567
rfoot -9.20905 -2.02292
rtoes -13.6667
lfemur 14.4086 7.10709 -14.0955
ltibia 25.8309
lfoot 8.30653 1.19234
ltoes -10.7001
153
root 8.42621 16.2168 -15.3098 7.04499 9.71809 0.841884
lowerback -5.81327 -3.19582 -1.78888
upperback -1.57779 -4.21569 3.08627
thorax 1.98877 -2.11662 3.86405
lowerneck -20.0356 -6.3355 -14.2023
upperneck 16.6255 -7.48018 13.7108
head 9.64952 -2.96747 6.09567
rclavicle -1.80149e-014 1.43125e-014
rhumerus -47.0515 4.90909 -81.3551
rradius 29.1069
rwrist -15.5828
rhand -30.2859 -21.9926
rfingers 7.12502
rthumb -3.59359 -51.9421
lclavicle -1.80149e-014 1.43125e-014
lhumerus -38.1101 2.69553 88.1658
lradius 16.6976
lwrist -12.834
lhand -3.74364 -19.4847
lfingers 7.12502
lthumb 22.0001 9.28406
rfemur -36.8072 1.54469 20.2267
rtibia 37.6591
rfoot -9.6369 -1.9081
rtoes -12.7307
lfemur 12.2525 7.22255 -13.7352
ltibia 29.4988
lfoot 9.5885 2.01402
ltoes -9.77469
154
root 8.40145 16.2605 -15.1752 7.02246 9.76293 0.593321
lowerback -5.59997 -3.16458 -1.68454
upperback -1.58967 -4.18396 3.24074
thorax 1.85928 -2.09919 3.98053
lowerneck -19.7815 -6.36026 -14.4425
upperneck 16.3598 -7.48891 13.8798
head 9.5307 -2.97941 6.19122
rclavicle 4.0229e-014 -2.54444e-014
rhumerus -46.8727 5.18842 -81.1131
rradius 29.3775
rwrist -15.8646
rhand -30.3765 -23.3494
rfingers 7.12502
rthumb -3.68101 -53.2974
lclavicle 4.0229e-014 -2.54444e-014
lhumerus -38.5878 2.5354 88.2388
lradius 17.0816
lwrist -13.504
lhand -5.32206 -19.9416
lfingers 7.12502
lthumb 20.4839 8.99789
rfemur -35.9323 1.53387 20.6809
rtibia 37.0642
rfoot -9.9476 -1.66723
rtoes -12.2686
lfemur 10.3715 7.35171 -13.4982
ltibia 32.8789
lfoot 10.4615 3.04783
ltoes -7.35591
155
root 8.37872 16.3051 -15.0425 7.16323 9.78737 0.333367
lowerback -5.57687 -3.10789 -1.50308
upperback -1.58923 -4.12034 3.33548
thorax 1.83592 -2.06663 3.98336
lowerneck -19.7627 -6.3882 -14.4318
upperneck 16.2117 -7.54231 13.9842
head 9.48948 -2.99367 6.21529
rclavicle -3.78933e-014 3.4191e-014
rhumerus -46.7167 5.78563 -81.3708
rradius 29.8204
rwrist -16.9366
rhand -30.4809 -24.8938
rfingers 7.12502
rthumb -3.78185 -54.84
lclavicle -3.78933e-014 3.4191e-014
lhumerus -39.1122 1.41751 88.7404
lradius 17.8707
lwrist -12.824
lhand -5.53031 -19.8087
lfingers 7.12502
lthumb 20.2838 9.15211
rfemur -35.2575 1.52096 21.138
rtibia 36.4714
rfoot -10.1255 -1.41137
rtoes -11.9363
lfemur 8.41063 7.56741 -13.2773
ltibia 35.9857
lfoot 10.1903 4.31883
ltoes -8.96519
156
root 8.35284 16.3518 -14.9137 7.4336 9.88715 0.0318131
lowerback -5.59824 -2.96855 -1.24259
upperback -1.66997 -3.94832 3.42017
thorax 1.73902 -1.97752 3.9401
lowerneck -19.8246 -6.54058 -14.54
upperneck 16.1306 -7.74378 14.1491
head 9.51817 -3.07516 6.26002
rclavicle 5.36719e-014 -1.19271e-014
rhumerus -46.5037 5.95361 -81.3759
rradius 30.2213
rwrist -17.2654
rhand -29.6341 -26.6252
rfingers 7.12502
rthumb -2.96407 -56.5844
lclavicle 5.36719e-014 -1.19271e-014
lhumerus -39.5263 -1.12691 90.1395
lradius 18.3543
lwrist -10.1012
lhand -4.20754 -19.2058
lfingers 7.12502
lthumb 21.5546 9.61475
rfemur -34.6771 1.53631 21.6299
rtibia 35.8724
rfoot -10.3781 -1.22293
rtoes -11.9375
lfemur 6.33647 7.74068 -13.0552
ltibia 38.8796
lfoot 8.8235 5.6304
ltoes -15.6929
157
root 8.33147 16.3982 -14.781 7.49949 9.86769 -0.209987
lowerback -5.42884 -2.76468 -0.997089
upperback -1.71395 -3.68714 3.41386
thorax 1.56281 -1.84367 3.8255
lowerneck -19.8728 -6.69141 -14.453
upperneck 16.1407 -7.96927 14.1185
head 9.5618 -3.17531 6.19727
rclavicle -8.52289e-015 -1.51076e-014
rhumerus -46.3257 5.93757 -81.3779
rradius 30.5941
rwrist -17.2404
rhand -29.5804 -25.9837
rfingers 7.12502
rthumb -2.91223 -55.9435
lclavicle -8.52289e-015 -1.51076e-014
lhumerus -40.1972 -3.91995 91.6454
lradius 19.119
lwrist -7.14562
lhand -3.0682 -18.7424
lfingers 7.12502
lthumb 22.6485 9.94867
rfemur -33.917 1.56984 22.0505
rtibia 35.2974
rfoot -10.7879 -0.997787
rtoes -12.17
lfemur 4.55473 7.83466 -12.9864
ltibia 41.5549
lfoot 7.65133 7.13305
ltoes -19.9346
